<svg viewBox="0 0 245 240" xmlns="http://www.w3.org/2000/svg"><g stroke-width="1.15752" transform="translate(-1.631935 -1.543389)"><path d="m103.18086 102.90735c-6.597862 0-11.806696 5.78758-11.806696 12.84845 0 7.06086 5.32459 12.84845 11.806696 12.84845 6.59785 0 11.80668-5.78759 11.80668-12.84845.11575-7.06087-5.20883-12.84845-11.80668-12.84845zm42.24941 0c-6.59786 0-11.80669 5.78758-11.80669 12.84845 0 7.06086 5.32459 12.84845 11.80669 12.84845 6.59785 0 11.80668-5.78759 11.80668-12.84845 0-7.06087-5.20883-12.84845-11.80668-12.84845z"/><path d="m201.68565 5.791567h-155.107438c-13.079956 0-23.729123 10.649167-23.729123 23.844874v156.496469c0 13.1957 10.649167 23.84487 23.729123 23.84487h131.262558l-6.13484-21.41408 14.81623 13.77446 14.00598 12.9642 24.88664 21.99285v-207.658769c0-13.195707-10.64917-23.844874-23.72913-23.844874zm-44.6802 151.171873s-4.16707-4.97732-7.63962-9.37589c15.16348-4.28282 20.95108-13.77446 20.95108-13.77446-4.74583 3.12529-9.26015 5.32458-13.31146 6.82935-5.7876 2.43079-11.34368 4.05132-16.78402 4.97733-11.11217 2.08353-21.29833 1.50478-29.97971-.11575-6.59786-1.27328-12.269699-3.1253-17.015529-4.97733-2.66229-1.04177-5.556083-2.31504-8.449879-3.93557-.347255-.2315-.694511-.34725-1.041766-.57875-.231504-.11576-.347255-.23151-.463007-.34726-2.083533-1.15752-3.241051-1.96778-3.241051-1.96778s5.556088 9.26015 20.256562 13.65872c-3.47255 4.39857-7.755365 9.60739-7.755365 9.60739-25.581153-.81026-35.304305-17.59427-35.304305-17.59427 0-37.27209 16.668262-67.483314 16.668262-67.483314 16.668259-12.501197 32.526268-12.153941 32.526268-12.153941l1.15751 1.389022c-20.835327 6.019094-30.442728 15.163488-30.442728 15.163488s2.54654-1.389022 6.829357-3.356803c12.385447-5.440335 22.224351-6.945108 26.275671-7.292365.69451-.115751 1.27326-.231503 1.96777-.231503 7.06086-.926015 15.04774-1.157518 23.38187-.231504 10.99643 1.27327 22.80311 4.514321 34.8413 11.112175 0 0-9.1444-8.681386-28.8222-14.700481l1.62052-1.852029s15.858-.347256 32.52626 12.153941c0 0 16.66826 30.211224 16.66826 67.483314 0 0-9.8389 16.78401-35.42005 17.59427z"/></g></svg>