<svg height="50mm" viewBox="0 0 50 50" width="50mm" xmlns="http://www.w3.org/2000/svg"><g transform="translate(.015938 .201472)"><path d="m6.7326992-.201472h36.7926078c3.738745 0 6.748638 3.0098922 6.748638 6.7486372v36.7926078c0 3.738745-3.009893 6.748638-6.748638 6.748638h-36.7926078c-3.738745 0-6.7486372-3.009893-6.7486372-6.748638v-36.7926078c0-3.738745 3.0098922-6.7486372 6.7486372-6.7486372z"/><g fill="#268bd2" stroke-width=".264583"><path d="m5.0962148 34.829777h5.9760622v-12.922265c1.202974-1.086557 2.017891-1.746252 3.376087-1.746252 1.552224 0 2.250725.814918 2.250725 3.492504v11.176013h6.014868v-11.952125c0-4.811894-1.785058-7.799925-5.976062-7.799925-2.638781 0-4.50145 1.31939-5.937257 2.599975l.271639-3.453698v-6.5193411h-5.9760622z"/><path d="m38.857042 41.892396h6.014868v-26.349002h-4.695478l-.504473 1.901474h-.155222c-1.513418-1.66864-3.026837-2.367141-5.122339-2.367141-3.996977 0-7.955148 3.802948-7.955148 10.089456 0 6.286507 3.104448 10.128261 7.877537 10.128261 1.707446 0 3.531309-.853723 4.734283-2.056697l-.194028 2.871615zm-2.949226-11.525263c-2.056697 0-3.298476-1.552224-3.298476-5.238756 0-3.608921 1.513419-5.161145 3.220865-5.161145.97014 0 2.095502.310445 3.026837 1.125363v7.683508c-.892529 1.202974-1.785058 1.59103-2.949226 1.59103z"/></g></g></svg>